<?xml version="1.0" standalone="no"?>
<!DOCTYPE svg PUBLIC "-//W3C//DTD SVG 20010904//EN"
 "http://www.w3.org/TR/2001/REC-SVG-20010904/DTD/svg10.dtd">
<svg version="1.0" xmlns="http://www.w3.org/2000/svg"
 width="139.000000pt" height="177.000000pt" viewBox="0 0 139.000000 177.000000"
 preserveAspectRatio="xMidYMid meet">
<g transform="translate(0.000000,177.000000) scale(0.100000,-0.100000)"
fill="#2563eb" stroke="none">
<path d="M735 1460 c-3 -5 -2 -10 4 -10 5 0 13 5 16 10 3 6 2 10 -4 10 -5 0
-13 -4 -16 -10z"/>
<path d="M650 1449 c0 -5 5 -7 10 -4 6 3 10 8 10 11 0 2 -4 4 -10 4 -5 0 -10
-5 -10 -11z"/>
<path d="M640 1367 c-69 -41 -172 -101 -230 -133 l-105 -60 -3 -293 c-2 -176
1 -298 7 -305 7 -8 -7 -10 -55 -8 -59 3 -64 2 -64 -17 0 -20 5 -21 115 -21
108 0 115 1 115 20 0 17 -7 20 -40 20 l-39 0 -3 298 c-2 163 1 302 5 307 5 6
5 1 1 -9 -7 -19 -7 -19 27 1 96 57 162 95 241 137 48 26 90 52 93 57 4 5 9 9
13 9 7 0 8 -258 1 -264 -2 -1 -39 -22 -81 -46 -64 -36 -78 -48 -78 -68 0 -21
2 -22 15 -12 8 7 12 16 9 21 -3 5 -2 9 3 8 22 -4 34 2 27 14 -6 9 -5 9 7 0 12
-9 24 -6 62 18 29 18 45 34 41 41 -4 6 -3 8 4 4 6 -3 13 2 15 11 4 17 5 17 6
0 0 -10 6 -15 11 -12 6 4 9 1 8 -5 -2 -7 34 -34 80 -60 77 -46 82 -47 82 -26
0 18 -17 32 -82 68 l-83 45 0 166 c0 92 0 167 0 167 0 0 -56 -33 -125 -73z
m107 6 c-3 -10 -5 -4 -5 12 0 17 2 24 5 18 2 -7 2 -21 0 -30z"/>
<path d="M531 1371 c-1 -7 -7 -11 -14 -8 -6 2 -18 -2 -25 -10 -12 -12 -9 -13
15 -7 35 8 36 10 30 26 -4 10 -6 10 -6 -1z"/>
<path d="M559 1375 c-1 -3 -2 -8 -3 -12 -1 -5 -5 -15 -10 -23 -7 -12 -6 -13 4
-3 13 12 23 43 14 43 -2 0 -5 -2 -5 -5z"/>
<path d="M790 1370 c0 -5 5 -10 11 -10 5 0 7 5 4 10 -3 6 -8 10 -11 10 -2 0
-4 -4 -4 -10z"/>
<path d="M831 1314 c0 -11 3 -14 6 -6 3 7 2 16 -1 19 -3 4 -6 -2 -5 -13z"/>
<path d="M1000 1290 c-12 -7 -10 -9 7 -7 12 0 19 5 17 9 -6 10 -6 10 -24 -2z"/>
<path d="M333 1277 c-4 -6 4 -7 20 -3 26 6 47 -8 25 -17 -8 -4 -7 -6 4 -6 10
-1 16 6 15 17 -1 13 -9 18 -30 18 -15 0 -31 -4 -34 -9z"/>
<path d="M675 1279 c-4 -6 -5 -12 -2 -15 2 -3 7 2 10 11 7 17 1 20 -8 4z"/>
<path d="M1045 1280 c-3 -6 1 -7 9 -4 18 7 21 14 7 14 -6 0 -13 -4 -16 -10z"/>
<path d="M829 1273 c0 -5 -2 -16 -4 -26 -2 -11 -1 -16 3 -13 8 8 14 46 7 46
-3 0 -5 -3 -6 -7z"/>
<path d="M337 1245 c-4 -8 -1 -17 5 -21 7 -5 8 -2 3 6 -6 10 -4 12 10 6 15 -5
16 -4 5 9 -15 19 -16 19 -23 0z"/>
<path d="M1020 1250 c-11 -7 -11 -10 -2 -10 8 0 10 -5 6 -12 -5 -9 -3 -9 9 1
9 7 14 17 11 22 -6 11 -6 11 -24 -1z"/>
<path d="M537 1236 c-79 -29 -97 -63 -97 -188 0 -100 -12 -137 -48 -153 -18
-8 -22 -18 -22 -52 0 -24 5 -43 10 -43 6 0 22 -11 35 -25 23 -22 25 -31 25
-127 0 -153 33 -199 152 -211 l47 -4 -2 48 c-1 48 -1 49 -32 49 -50 0 -63 24
-66 115 -3 105 -12 142 -43 174 l-26 27 26 25 c31 31 43 81 44 175 0 82 11
102 60 106 19 2 34 6 33 11 -2 4 -3 25 -3 47 0 37 -2 40 -27 40 -16 -1 -45 -7
-66 -14z m45 -26 c7 -11 17 -20 22 -20 5 0 1 9 -9 20 -17 19 -17 20 0 20 10 0
15 -3 12 -7 -4 -3 -2 -12 3 -18 8 -9 1 -18 -24 -33 -22 -13 -38 -17 -42 -11
-7 12 -7 11 21 28 19 12 19 12 -2 6 -20 -5 -23 2 -14 33 3 9 23 -1 33 -18z
m-47 -40 c0 -46 -2 -49 -15 -17 -6 15 -7 6 -3 -29 3 -33 1 -54 -6 -58 -6 -4
-11 -13 -11 -19 0 -7 4 -6 10 3 7 11 10 5 10 -24 0 -30 -3 -37 -15 -32 -11 4
-14 -1 -13 -19 1 -13 6 -21 10 -19 5 3 6 10 3 15 -4 5 -1 9 5 9 17 0 1 -50
-34 -105 -18 -27 -36 -59 -40 -70 -5 -12 -10 -15 -13 -8 -2 7 1 22 7 35 11 22
10 21 -9 -2 -16 -20 -22 -22 -32 -13 -10 10 -9 16 7 28 16 13 16 14 1 9 -13
-5 -16 -2 -11 10 5 13 10 14 27 4 20 -10 21 -9 9 5 -11 13 -10 17 4 25 10 5
19 16 20 23 1 8 4 26 7 42 3 15 7 62 8 105 2 69 4 80 28 102 15 14 19 19 9 11
-20 -16 -25 -2 -6 17 25 25 43 14 43 -28z m-46 -370 c12 -17 19 -35 16 -40 -3
-6 -1 -10 5 -10 7 0 10 -6 7 -12 -14 -39 -18 -60 -10 -55 5 3 9 -24 9 -60 -1
-44 3 -68 12 -71 6 -2 12 -9 12 -15 0 -8 -4 -7 -12 1 -18 18 -25 14 -25 -15 0
-22 1 -23 9 -9 8 14 12 15 26 4 12 -10 14 -10 8 0 -9 15 -1 14 44 -3 19 -7 29
-14 22 -14 -10 -1 -10 -6 -2 -21 10 -18 8 -20 -22 -20 -19 0 -44 8 -57 17 -18
12 -22 13 -16 2 4 -8 -4 -3 -17 11 -17 17 -21 27 -14 32 7 5 7 8 -3 8 -8 0
-11 6 -7 16 3 9 2 12 -5 9 -7 -5 -10 24 -8 87 1 58 -3 103 -10 117 -7 12 -9
30 -5 39 4 9 6 20 6 25 -4 17 16 5 37 -23z"/>
<path d="M481 1151 c-11 -7 -11 -9 0 -14 12 -5 11 -8 -1 -17 -13 -10 -12 -11
3 -6 15 5 17 2 12 -14 -4 -11 -2 -20 4 -20 12 0 13 22 3 57 -5 16 -11 20 -21
14z"/>
<path d="M450 926 c0 -3 9 -10 20 -16 11 -6 20 -8 20 -6 0 3 -9 10 -20 16 -11
6 -20 8 -20 6z"/>
<path d="M436 892 c-2 -4 4 -8 14 -8 10 0 16 4 14 8 -3 4 -9 8 -14 8 -5 0 -11
-4 -14 -8z"/>
<path d="M454 798 c-4 -7 -4 -10 1 -6 4 4 16 -3 26 -15 10 -12 18 -18 19 -14
0 4 -9 17 -19 28 -15 16 -21 18 -27 7z"/>
<path d="M487 729 c4 -13 8 -18 11 -10 2 7 -1 18 -6 23 -8 8 -9 4 -5 -13z"/>
<path d="M492 620 c0 -14 2 -19 5 -12 2 6 2 18 0 25 -3 6 -5 1 -5 -13z"/>
<path d="M490 570 c0 -5 5 -10 11 -10 5 0 7 5 4 10 -3 6 -8 10 -11 10 -2 0 -4
-4 -4 -10z"/>
<path d="M860 1203 c0 -49 0 -50 32 -51 48 -1 58 -23 58 -126 0 -94 16 -141
59 -173 14 -11 14 -14 -7 -28 -40 -29 -52 -67 -52 -168 0 -104 -11 -127 -63
-127 -25 0 -27 -3 -27 -45 l0 -45 45 0 c57 0 100 22 125 63 16 26 20 50 20
136 l0 103 34 34 c46 46 53 100 16 119 -39 20 -50 56 -50 158 0 134 -34 181
-139 194 l-51 6 0 -50z m75 17 c7 -11 -24 -22 -37 -13 -7 3 -8 1 -4 -6 9 -13
47 -5 58 13 5 7 8 5 8 -5 0 -9 7 -22 15 -29 8 -7 15 -15 15 -19 0 -13 -48 -10
-60 4 -7 8 -21 15 -31 15 -13 0 -19 7 -19 24 0 18 5 24 25 24 14 0 28 -4 30
-8z m65 -36 c0 -9 5 -12 12 -8 7 4 8 3 4 -4 -4 -7 -2 -12 3 -12 7 0 11 -36 11
-100 0 -81 4 -108 20 -140 11 -22 26 -39 33 -37 7 1 11 -7 10 -21 -2 -13 1
-21 7 -17 19 12 10 -16 -13 -38 -45 -44 -49 -56 -53 -149 -3 -51 -8 -104 -11
-118 -3 -14 -6 -28 -5 -33 1 -4 -1 -6 -5 -6 -22 4 -33 -2 -27 -13 6 -10 4 -10
-8 0 -13 10 -18 10 -24 1 -4 -8 -3 -9 4 -5 7 4 12 2 12 -3 0 -6 -6 -12 -12
-12 -7 -1 -28 -3 -46 -5 -29 -3 -33 -1 -30 16 4 25 24 26 21 2 -1 -10 0 -11 3
-4 3 6 10 12 15 12 6 0 7 -5 3 -12 -5 -7 -3 -8 6 -3 10 6 10 11 -3 20 -10 7
-17 16 -17 20 0 5 3 6 6 2 3 -3 15 3 27 14 15 14 22 35 25 79 2 33 8 63 13 66
5 3 9 11 9 17 0 8 -3 7 -9 -2 -6 -9 -8 3 -7 33 1 39 7 52 34 77 17 16 32 35
32 42 0 7 -14 25 -30 40 -17 16 -28 33 -24 38 3 5 1 9 -4 9 -5 0 -10 43 -11
96 -1 52 -2 101 -4 107 -1 7 8 11 20 11 19 -1 20 1 11 22 -6 13 -15 24 -20 24
-5 0 -6 5 -3 10 8 14 25 3 25 -16z"/>
<path d="M1000 1079 c0 -5 5 -7 10 -4 6 3 10 8 10 11 0 2 -4 4 -10 4 -5 0 -10
-5 -10 -11z"/>
<path d="M993 955 c3 -45 49 -106 63 -84 5 8 3 9 -5 5 -8 -5 -11 -2 -9 9 2 11
-4 19 -15 21 -28 4 -30 10 -10 30 17 17 17 17 1 11 -19 -7 -25 7 -8 18 6 3 10
12 10 18 0 8 -3 7 -9 -2 -7 -11 -9 -11 -14 0 -4 8 -5 -4 -4 -26z"/>
<path d="M1077 873 c-4 -3 -7 -11 -7 -17 0 -6 5 -5 12 2 6 6 9 14 7 17 -3 3
-9 2 -12 -2z"/>
<path d="M1053 843 c4 -3 3 -11 -3 -17 -6 -8 -3 -12 10 -12 15 0 16 4 9 18 -5
10 -13 18 -16 18 -3 0 -3 -3 0 -7z"/>
<path d="M1037 783 c3 -7 6 -13 8 -13 2 0 5 6 8 13 3 8 -1 14 -8 14 -7 0 -11
-6 -8 -14z"/>
<path d="M995 780 c-3 -6 1 -7 9 -4 18 7 21 14 7 14 -6 0 -13 -4 -16 -10z"/>
<path d="M1000 730 c-9 -6 -10 -10 -3 -10 6 0 15 5 18 10 8 12 4 12 -15 0z"/>
<path d="M1002 670 c1 -23 4 -36 8 -30 6 10 1 70 -6 70 -2 0 -3 -18 -2 -40z"/>
<path d="M1002 600 c0 -14 2 -19 5 -12 2 6 2 18 0 25 -3 6 -5 1 -5 -13z"/>
<path d="M977 575 c-4 -8 -3 -16 1 -19 4 -3 9 4 9 15 2 23 -3 25 -10 4z"/>
<path d="M1003 560 c2 -8 -2 -23 -11 -32 -8 -10 -11 -18 -6 -18 17 0 33 36 22
51 -8 12 -9 12 -5 -1z"/>
<path d="M945 510 c-3 -6 1 -7 9 -4 18 7 21 14 7 14 -6 0 -13 -4 -16 -10z"/>
<path d="M791 1213 c0 -12 2 -14 6 -4 5 11 7 11 15 0 8 -12 9 -12 6 0 -6 22
-28 25 -27 4z"/>
<path d="M822 1179 c-10 -16 -10 -19 -1 -13 9 5 10 2 6 -9 -3 -9 -2 -19 3 -22
6 -4 10 -11 10 -17 0 -6 -7 -5 -17 3 -10 9 -14 9 -10 2 4 -7 22 -22 40 -33 23
-16 26 -17 12 -3 -18 16 -24 38 -26 96 0 22 -1 21 -17 -4z"/>
<path d="M790 1179 c0 -5 5 -7 10 -4 6 3 10 8 10 11 0 2 -4 4 -10 4 -5 0 -10
-5 -10 -11z"/>
<path d="M265 1169 c-4 -6 -5 -12 -2 -15 2 -3 7 2 10 11 7 17 1 20 -8 4z"/>
<path d="M403 1152 c0 -12 5 -22 9 -22 11 0 10 12 -2 30 -7 12 -9 10 -7 -8z"/>
<path d="M1071 1154 c0 -11 3 -14 6 -6 3 7 2 16 -1 19 -3 4 -6 -2 -5 -13z"/>
<path d="M784 1140 c0 -13 4 -16 10 -10 7 7 7 13 0 20 -6 6 -10 3 -10 -10z"/>
<path d="M1097 1137 c-3 -8 1 -14 8 -14 7 0 11 6 8 14 -3 7 -6 13 -8 13 -2 0
-5 -6 -8 -13z"/>
<path d="M575 1120 c-3 -5 -1 -10 4 -10 6 0 11 5 11 10 0 6 -2 10 -4 10 -3 0
-8 -4 -11 -10z"/>
<path d="M906 1116 c10 -8 21 -12 24 -10 5 6 -21 24 -34 24 -6 0 -1 -6 10 -14z"/>
<path d="M876 1098 c3 -5 10 -6 15 -3 13 9 11 12 -6 12 -8 0 -12 -4 -9 -9z"/>
<path d="M566 1091 c-4 -5 -2 -12 3 -15 5 -4 12 -2 15 3 4 5 2 12 -3 15 -5 4
-12 2 -15 -3z"/>
<path d="M727 1057 c-2 -6 -5 -49 -6 -95 -1 -76 0 -82 19 -82 19 0 20 6 20 95
0 75 -3 95 -14 95 -8 0 -16 -6 -19 -13z"/>
<path d="M411 1034 c0 -11 3 -14 6 -6 3 7 2 16 -1 19 -3 4 -6 -2 -5 -13z"/>
<path d="M676 999 c-11 -10 -16 -22 -13 -26 4 -3 7 -1 7 6 0 7 6 11 13 8 8 -3
14 3 14 14 2 23 3 23 -21 -2z"/>
<path d="M818 1001 c15 -13 18 -21 10 -24 -7 -2 -10 -7 -7 -11 3 -4 11 0 18 7
9 12 6 18 -16 31 l-28 17 23 -20z"/>
<path d="M611 996 c-8 -9 -11 -79 -9 -227 3 -194 5 -214 21 -217 15 -3 17 7
17 110 l0 113 45 1 45 1 0 -104 0 -103 -35 0 c-28 0 -35 -4 -35 -20 0 -17 7
-20 53 -20 l52 0 0 140 0 140 -62 0 -63 0 0 94 c0 94 -8 118 -29 92z"/>
<path d="M869 967 c6 -8 7 -18 3 -22 -4 -5 -1 -5 6 -1 10 6 10 11 1 22 -6 8
-14 14 -16 14 -3 0 0 -6 6 -13z"/>
<path d="M1120 960 c0 -5 5 -10 11 -10 5 0 7 5 4 10 -3 6 -8 10 -11 10 -2 0
-4 -4 -4 -10z"/>
<path d="M662 935 c0 -16 2 -22 5 -12 2 9 2 23 0 30 -3 6 -5 -1 -5 -18z"/>
<path d="M1078 948 c5 -5 16 -8 23 -6 8 3 3 7 -10 11 -17 4 -21 3 -13 -5z"/>
<path d="M828 943 c6 -2 18 -2 25 0 6 3 1 5 -13 5 -14 0 -19 -2 -12 -5z"/>
<path d="M838 923 c7 -3 16 -2 19 1 4 3 -2 6 -13 5 -11 0 -14 -3 -6 -6z"/>
<path d="M927 911 c-3 -13 -1 -18 9 -14 7 2 10 11 7 19 -7 19 -10 18 -16 -5z"/>
<path d="M1120 921 c0 -6 4 -13 10 -16 6 -3 7 1 4 9 -7 18 -14 21 -14 7z"/>
<path d="M1195 920 c-7 -11 22 -26 32 -16 4 3 -2 6 -13 6 -16 0 -17 2 -4 10 9
6 10 10 3 10 -6 0 -15 -5 -18 -10z"/>
<path d="M1355 910 c3 -5 8 -10 11 -10 2 0 4 5 4 10 0 6 -5 10 -11 10 -5 0 -7
-4 -4 -10z"/>
<path d="M939 885 c-1 -3 -2 -8 -3 -12 -1 -5 -5 -13 -9 -19 -9 -15 19 -38 38
-30 21 8 19 23 -5 36 -11 6 -18 15 -15 21 4 5 4 9 1 9 -3 0 -7 -2 -7 -5z m31
-46 c0 -11 -27 -12 -34 0 -3 4 -3 11 0 14 8 8 34 -3 34 -14z"/>
<path d="M1148 708 l3 -178 74 0 c68 0 75 2 75 20 0 18 -7 20 -61 20 l-60 0 3
154 c3 148 2 155 -17 158 -19 4 -20 0 -17 -174z"/>
<path d="M1383 855 c0 -22 2 -30 4 -17 2 12 2 30 0 40 -3 9 -5 -1 -4 -23z"/>
<path d="M895 863 c3 -3 0 -11 -5 -18 -7 -8 -5 -12 4 -12 14 0 16 22 3 32 -4
3 -5 2 -2 -2z"/>
<path d="M520 850 c-9 -6 -10 -10 -3 -10 6 0 15 5 18 10 8 12 4 12 -15 0z"/>
<path d="M697 839 c7 -7 15 -10 18 -7 3 3 -2 9 -12 12 -14 6 -15 5 -6 -5z"/>
<path d="M532 831 c-11 -6 -10 -10 0 -19 11 -8 14 -7 14 9 0 10 0 19 -1 19 0
0 -6 -4 -13 -9z"/>
<path d="M770 836 c0 -2 8 -10 18 -17 15 -13 16 -12 3 4 -13 16 -21 21 -21 13z"/>
<path d="M831 794 c0 -11 3 -14 6 -6 3 7 2 16 -1 19 -3 4 -6 -2 -5 -13z"/>
<path d="M551 785 c0 -5 3 -16 8 -23 7 -11 9 -10 14 3 4 9 3 14 -2 10 -5 -3
-12 1 -14 7 -3 7 -6 9 -6 3z"/>
<path d="M250 770 c0 -5 5 -10 10 -10 6 0 10 5 10 10 0 6 -4 10 -10 10 -5 0
-10 -4 -10 -10z"/>
<path d="M1106 757 c3 -10 9 -15 12 -12 3 3 0 11 -7 18 -10 9 -11 8 -5 -6z"/>
<path d="M679 733 c-12 -16 -12 -17 2 -6 9 7 20 9 24 5 5 -4 5 -1 1 6 -9 16
-11 15 -27 -5z"/>
<path d="M822 705 c0 -16 2 -22 5 -12 2 9 2 23 0 30 -3 6 -5 -1 -5 -18z"/>
<path d="M892 700 c0 -19 2 -27 5 -17 2 9 2 25 0 35 -3 9 -5 1 -5 -18z"/>
<path d="M1368 693 c7 -3 16 -2 19 1 4 3 -2 6 -13 5 -11 0 -14 -3 -6 -6z"/>
<path d="M660 664 c0 -14 4 -23 9 -20 5 3 7 15 4 26 -7 28 -13 25 -13 -6z"/>
<path d="M562 660 c0 -14 2 -19 5 -12 2 6 2 18 0 25 -3 6 -5 1 -5 -13z"/>
<path d="M1213 660 c2 -8 12 -16 23 -17 13 -2 15 -1 4 4 -8 3 -19 11 -23 17
-6 7 -7 6 -4 -4z"/>
<path d="M886 645 c-3 -8 -1 -15 4 -15 6 0 10 7 10 15 0 8 -2 15 -4 15 -2 0
-6 -7 -10 -15z"/>
<path d="M195 639 c-3 -4 2 -6 10 -5 21 3 28 13 10 13 -9 0 -18 -4 -20 -8z"/>
<path d="M395 631 c-3 -5 -1 -12 5 -16 5 -3 10 1 10 9 0 18 -6 21 -15 7z"/>
<path d="M561 614 c0 -11 3 -14 6 -6 3 7 2 16 -1 19 -3 4 -6 -2 -5 -13z"/>
<path d="M822 605 c0 -16 2 -22 5 -12 2 9 2 23 0 30 -3 6 -5 -1 -5 -18z"/>
<path d="M695 609 c-4 -6 -5 -12 -2 -15 2 -3 7 2 10 11 7 17 1 20 -8 4z"/>
<path d="M164 588 c-3 -11 -3 -22 0 -25 3 -4 6 0 6 7 0 7 7 18 16 25 15 11 15
12 0 12 -8 0 -18 -9 -22 -19z"/>
<path d="M210 598 c0 -4 4 -8 9 -8 6 0 12 4 15 8 3 5 -1 9 -9 9 -8 0 -15 -4
-15 -9z"/>
<path d="M1230 600 c0 -5 5 -10 11 -10 5 0 7 5 4 10 -3 6 -8 10 -11 10 -2 0
-4 -4 -4 -10z"/>
<path d="M1270 600 c-8 -5 -10 -10 -5 -10 6 0 17 5 25 10 8 5 11 10 5 10 -5 0
-17 -5 -25 -10z"/>
<path d="M823 541 l-2 -26 10 24 c6 15 14 21 25 17 8 -3 12 -2 9 3 -12 20 -41
7 -42 -18z"/>
<path d="M890 559 c0 -5 5 -7 10 -4 6 3 10 8 10 11 0 2 -4 4 -10 4 -5 0 -10
-5 -10 -11z"/>
<path d="M785 515 c0 -12 3 -21 7 -19 3 2 9 -2 12 -8 3 -7 3 -2 0 12 -9 35
-19 44 -19 15z"/>
<path d="M170 527 c0 -2 6 -10 14 -16 11 -9 16 -9 22 1 4 7 4 10 -1 6 -4 -4
-14 -3 -22 3 -7 6 -13 9 -13 6z"/>
<path d="M388 503 c7 -3 16 -2 19 1 4 3 -2 6 -13 5 -11 0 -14 -3 -6 -6z"/>
<path d="M420 502 c0 -4 10 -13 23 -21 22 -14 22 -14 3 8 -20 22 -26 25 -26
13z"/>
<path d="M660 506 c0 -2 7 -7 16 -10 8 -3 12 -2 9 4 -6 10 -25 14 -25 6z"/>
<path d="M381 477 c2 -1 15 -11 29 -22 l25 -20 -19 23 c-11 12 -24 22 -29 22
-6 0 -8 -1 -6 -3z"/>
<path d="M477 450 c10 -11 10 -17 0 -28 -10 -13 -9 -14 10 -1 12 7 21 14 20
14 -1 0 -11 7 -22 15 -16 11 -18 11 -8 0z"/>
<path d="M1020 441 c0 -6 4 -13 10 -16 6 -3 7 1 4 9 -7 18 -14 21 -14 7z"/>
<path d="M828 413 c7 -3 16 -2 19 1 4 3 -2 6 -13 5 -11 0 -14 -3 -6 -6z"/>
<path d="M573 383 c9 -2 25 -2 35 0 9 3 1 5 -18 5 -19 0 -27 -2 -17 -5z"/>
</g>
</svg>
